<svg viewBox="0 0 30 30" xmlns="http://www.w3.org/2000/svg" xmlns:xlink="http://www.w3.org/1999/xlink" width="30.000000" height="30.000000" fill="none" customFrame="#000000">
	<g id="Facebook">
		<path id="Combined Shape" d="M15 0C6.71573 0 0 6.71573 0 15C0 23.2843 6.71573 30 15 30C23.2843 30 30 23.2843 30 15C30 6.71573 23.2843 0 15 0ZM16.5635 15.6589L16.5635 23.8197L13.1869 23.8197L13.1869 15.6592L11.5 15.6592L11.5 12.8469L13.1869 12.8469L13.1869 11.1585C13.1869 8.86425 14.1395 7.5 16.8457 7.5L19.0988 7.5L19.0988 10.3126L17.6905 10.3126C16.637 10.3126 16.5673 10.7056 16.5673 11.4391L16.5635 12.8466L19.1147 12.8466L18.8162 15.6589L16.5635 15.6589Z" fill="rgb(20,16,36)" fill-rule="evenodd" />
	</g>
</svg>
