<svg width="223.529297" height="22.199951" viewBox="0 0 223.529 22.2" fill="none" xmlns="http://www.w3.org/2000/svg" xmlns:xlink="http://www.w3.org/1999/xlink">
	<desc>
			Created with Pixso.
	</desc>
	<defs/>
	<path d="M19.03 15.44C18.49 14.08 18.22 12.59 18.22 10.97C18.22 9.35 18.5 7.87 19.06 6.53C19.64 5.19 20.44 4.03 21.46 3.05C22.48 2.07 23.68 1.32 25.06 0.8Q27.13 -7.06e-5 29.53 -7.06e-5Q31.96 -7.06e-5 34 0.8C35.38 1.32 36.58 2.07 37.6 3.05Q38.12 3.56 38.56 4.12Q39.42 5.21 39.97 6.53Q40.81 8.54 40.81 10.97Q40.81 13.4 39.97 15.44C39.43 16.8 38.65 17.98 37.63 18.98C36.63 19.98 35.44 20.76 34.06 21.32Q31.99 22.13 29.53 22.13Q27.04 22.13 24.97 21.32C23.59 20.76 22.39 19.98 21.37 18.98Q21 18.61 20.67 18.21Q19.66 16.98 19.03 15.44ZM63.59 15.44C63.05 14.08 62.78 12.59 62.78 10.97C62.78 9.35 63.06 7.87 63.62 6.53C64.2 5.19 65 4.03 66.02 3.05C67.04 2.07 68.24 1.32 69.62 0.8C71 0.26 72.49 -7.06e-5 74.09 -7.06e-5C75.71 -7.06e-5 77.2 0.26 78.56 0.8C79.94 1.32 81.14 2.07 82.16 3.05Q82.68 3.56 83.12 4.12Q83.98 5.21 84.53 6.53Q85.37 8.54 85.37 10.97Q85.37 13.4 84.53 15.44C83.99 16.8 83.21 17.98 82.19 18.98C81.19 19.98 80 20.76 78.62 21.32C77.24 21.86 75.73 22.13 74.09 22.13C72.43 22.13 70.91 21.86 69.53 21.32C68.15 20.76 66.95 19.98 65.93 18.98Q65.56 18.61 65.23 18.21Q64.22 16.98 63.59 15.44ZM96.15 16.64L99.69 14.09Q100.32 15.23 101.1 16.07C101.64 16.63 102.22 17.06 102.84 17.36C103.48 17.66 104.15 17.81 104.85 17.81Q105.93 17.81 106.64 17.3Q106.66 17.29 106.68 17.27C107.16 16.89 107.4 16.38 107.4 15.74Q107.4 14.99 107.03 14.52Q107 14.49 106.98 14.45C106.7 14.11 106.25 13.79 105.63 13.49C105.01 13.19 104.19 12.85 103.17 12.47Q102.42 12.2 101.43 11.72C100.79 11.4 100.18 10.99 99.6 10.49C99.02 9.97 98.54 9.35 98.16 8.63C97.78 7.89 97.59 7 97.59 5.96Q97.59 4.47 98.21 3.31Q98.36 3.02 98.55 2.75C99.21 1.85 100.09 1.17 101.19 0.71C102.31 0.23 103.55 -7.06e-5 104.91 -7.06e-5Q107.01 -7.16e-5 108.54 0.68Q110.1 1.37 111.12 2.42C111.8 3.12 112.32 3.83 112.68 4.55L108.81 6.71C108.51 6.21 108.16 5.78 107.76 5.42C107.38 5.04 106.95 4.75 106.47 4.55Q106.32 4.49 106.17 4.43Q105.61 4.22 104.97 4.22C104.25 4.22 103.7 4.38 103.32 4.7C102.94 5 102.75 5.38 102.75 5.84Q102.75 6.13 102.83 6.39Q102.96 6.78 103.29 7.1C103.67 7.46 104.2 7.79 104.88 8.09C105.58 8.39 106.42 8.71 107.4 9.05C108.14 9.33 108.83 9.66 109.47 10.04C110.11 10.4 110.67 10.84 111.15 11.36C111.65 11.88 112.04 12.48 112.32 13.16Q112.74 14.18 112.74 15.5C112.74 16.56 112.52 17.51 112.08 18.35C111.66 19.17 111.08 19.86 110.34 20.42C109.62 20.98 108.79 21.4 107.85 21.68C106.93 21.98 105.98 22.13 105 22.13C103.64 22.13 102.37 21.89 101.19 21.41C100.03 20.91 99.02 20.24 98.16 19.4C97.3 18.56 96.63 17.64 96.15 16.64ZM121.32 7.64Q120.45 9.02 120.45 10.97Q120.45 12.82 121.25 14.2Q121.29 14.25 121.32 14.3C121.9 15.22 122.66 15.92 123.6 16.4C124.56 16.88 125.61 17.12 126.75 17.12C127.75 17.12 128.63 16.99 129.39 16.73C130.15 16.47 130.83 16.13 131.43 15.71C132.03 15.29 132.56 14.84 133.02 14.36L133.02 19.82Q132.41 20.3 131.74 20.69Q131.03 21.09 130.26 21.38C129.26 21.76 127.99 21.95 126.45 21.95C124.77 21.95 123.22 21.69 121.8 21.17C120.38 20.65 119.16 19.9 118.14 18.92C117.12 17.94 116.33 16.78 115.77 15.44C115.21 14.1 114.93 12.61 114.93 10.97C114.93 9.33 115.21 7.84 115.77 6.5Q116.32 5.18 117.17 4.09Q117.62 3.53 118.14 3.02C119.16 2.04 120.38 1.29 121.8 0.77C123.22 0.25 124.77 -7.06e-5 126.45 -7.06e-5Q128.76 -7.06e-5 130.26 0.56C131.26 0.94 132.18 1.46 133.02 2.12L133.02 7.58C132.56 7.1 132.03 6.65 131.43 6.23C130.83 5.79 130.15 5.45 129.39 5.21C128.63 4.95 127.75 4.82 126.75 4.82C125.61 4.82 124.56 5.06 123.6 5.54C122.66 6.02 121.9 6.72 121.32 7.64ZM160.36 15.44C159.82 14.08 159.55 12.59 159.55 10.97Q159.55 8.54 160.39 6.53C160.97 5.19 161.77 4.03 162.79 3.05C163.81 2.07 165.01 1.32 166.39 0.8C167.77 0.26 169.26 -7.06e-5 170.86 -7.06e-5C172.48 -7.06e-5 173.97 0.26 175.33 0.8C176.71 1.32 177.91 2.07 178.93 3.05C179.95 4.03 180.74 5.19 181.3 6.53Q182.14 8.54 182.14 10.97Q182.14 13.4 181.3 15.44Q180.78 16.75 179.97 17.84Q179.51 18.45 178.96 18.98C177.96 19.98 176.77 20.76 175.39 21.32C174.01 21.86 172.5 22.13 170.86 22.13C169.2 22.13 167.68 21.86 166.3 21.32C164.92 20.76 163.72 19.98 162.7 18.98Q162.33 18.61 162 18.21Q160.99 16.98 160.36 15.44ZM185 15.44C184.46 14.08 184.19 12.59 184.19 10.97Q184.19 8.54 185.03 6.53C185.61 5.19 186.41 4.03 187.43 3.05C188.45 2.07 189.65 1.32 191.03 0.8C192.41 0.26 193.9 -7.06e-5 195.5 -7.06e-5C197.12 -7.06e-5 198.61 0.26 199.97 0.8C201.35 1.32 202.55 2.07 203.57 3.05C204.59 4.03 205.38 5.19 205.94 6.53Q206.78 8.54 206.78 10.97Q206.78 13.4 205.94 15.44Q205.42 16.75 204.6 17.84Q204.15 18.45 203.6 18.98C202.6 19.98 201.41 20.76 200.03 21.32C198.65 21.86 197.14 22.13 195.5 22.13C193.84 22.13 192.32 21.86 190.94 21.32C189.56 20.76 188.36 19.98 187.34 18.98Q186.96 18.61 186.63 18.21Q185.63 16.98 185 15.44ZM2.93e-5 21.47L2.93e-5 0.47L7.65 0.47Q10.35 0.47 12.15 1.34C13.35 1.92 14.26 2.73 14.88 3.77C15.5 4.79 15.81 5.98 15.81 7.34Q15.81 9.05 15.14 10.43Q15.02 10.68 14.88 10.91C14.26 11.93 13.35 12.73 12.15 13.31C11.97 13.4 11.78 13.48 11.59 13.55L17.07 21.47L11.13 21.47L6.62 14.18L5.07 14.18L5.07 21.47L2.93e-5 21.47ZM5.07 10.25L7.29 10.25C7.97 10.25 8.55 10.15 9.03 9.95C9.53 9.73 9.91 9.42 10.17 9.02Q10.17 9.02 10.17 9.02Q10.56 8.39 10.56 7.52Q10.56 6.65 10.17 6.05C9.91 5.63 9.53 5.31 9.03 5.09C8.55 4.87 7.97 4.76 7.29 4.76L5.07 4.76L5.07 10.25ZM49.13 12.35L49.13 17.54L51.71 17.54C52.37 17.54 52.96 17.46 53.48 17.3C54 17.12 54.41 16.84 54.71 16.46C55.03 16.06 55.19 15.52 55.19 14.84C55.19 14.4 55.1 14.02 54.92 13.7Q54.81 13.52 54.68 13.36Q54.46 13.11 54.17 12.92C53.85 12.72 53.48 12.58 53.06 12.5C52.66 12.4 52.21 12.35 51.71 12.35L49.13 12.35ZM56.18 10.19C56.78 10.4 57.34 10.67 57.86 11C58.64 11.48 59.26 12.1 59.72 12.86C60.2 13.6 60.44 14.5 60.44 15.56C60.44 16.96 60.1 18.09 59.42 18.95C58.76 19.81 57.82 20.45 56.6 20.87C55.38 21.27 53.94 21.47 52.28 21.47L44.06 21.47L44.06 0.47L51.77 0.47C53.23 0.47 54.51 0.67 55.61 1.07C56.73 1.45 57.61 2.04 58.25 2.84C58.91 3.62 59.24 4.61 59.24 5.81C59.24 6.91 58.91 7.85 58.25 8.63Q57.46 9.6 56.18 10.19ZM49.13 8.81L51.23 8.81C51.81 8.81 52.3 8.72 52.7 8.54Q53.32 8.28 53.65 7.81Q53.65 7.8 53.66 7.79Q53.66 7.79 53.67 7.78Q53.99 7.28 53.99 6.56C53.99 5.84 53.75 5.3 53.27 4.94C52.79 4.58 52.11 4.4 51.23 4.4L49.13 4.4L49.13 8.81ZM137.16 21.47L137.16 0.47L142.23 0.47L142.23 8.12L151.26 8.12L151.26 0.47L156.33 0.47L156.33 21.47L151.26 21.47L151.26 12.68L142.23 12.68L142.23 21.47L137.16 21.47ZM210.02 21.47L210.02 0.47L215.09 0.47L215.09 17.12L223.52 17.12L223.52 21.47L210.02 21.47ZM24.31 7.7C23.83 8.64 23.59 9.73 23.59 10.97C23.59 12.21 23.83 13.31 24.31 14.27C24.81 15.21 25.5 15.95 26.38 16.49C27.28 17.03 28.33 17.3 29.53 17.3Q31.17 17.3 32.43 16.61Q32.52 16.55 32.62 16.49C33.52 15.95 34.21 15.21 34.69 14.27C35.19 13.31 35.44 12.21 35.44 10.97C35.44 9.73 35.2 8.64 34.72 7.7C34.24 6.74 33.56 5.99 32.68 5.45C31.8 4.91 30.75 4.64 29.53 4.64Q27.83 4.64 26.53 5.37Q26.46 5.41 26.38 5.45C25.5 5.99 24.81 6.74 24.31 7.7ZM68.87 7.7C68.39 8.64 68.15 9.73 68.15 10.97C68.15 12.21 68.39 13.31 68.87 14.27C69.37 15.21 70.06 15.95 70.94 16.49C71.84 17.03 72.89 17.3 74.09 17.3Q75.73 17.3 76.99 16.61Q77.08 16.55 77.18 16.49C78.08 15.95 78.77 15.21 79.25 14.27C79.75 13.31 80 12.21 80 10.97C80 9.73 79.76 8.64 79.28 7.7C78.8 6.74 78.12 5.99 77.24 5.45C76.36 4.91 75.31 4.64 74.09 4.64C72.89 4.64 71.84 4.91 70.94 5.45C70.06 5.99 69.37 6.74 68.87 7.7ZM165.64 7.7C165.16 8.64 164.92 9.73 164.92 10.97C164.92 12.21 165.16 13.31 165.64 14.27C166.14 15.21 166.83 15.95 167.71 16.49C168.61 17.03 169.66 17.3 170.86 17.3Q172.5 17.3 173.75 16.61Q173.85 16.55 173.95 16.49C174.85 15.95 175.54 15.21 176.02 14.27Q176.77 12.83 176.77 10.97C176.77 9.73 176.53 8.64 176.05 7.7C175.57 6.74 174.89 5.99 174.01 5.45C173.13 4.91 172.08 4.64 170.86 4.64Q169.16 4.64 167.86 5.37Q167.78 5.41 167.71 5.45C166.83 5.99 166.14 6.74 165.64 7.7ZM190.28 7.7C189.8 8.64 189.56 9.73 189.56 10.97C189.56 12.21 189.8 13.31 190.28 14.27C190.78 15.21 191.47 15.95 192.35 16.49C193.25 17.03 194.3 17.3 195.5 17.3Q197.14 17.3 198.39 16.61Q198.49 16.55 198.59 16.49C199.49 15.95 200.18 15.21 200.66 14.27Q201.41 12.83 201.41 10.97C201.41 9.73 201.17 8.64 200.69 7.7C200.21 6.74 199.53 5.99 198.65 5.45C197.77 4.91 196.72 4.64 195.5 4.64Q193.8 4.64 192.5 5.37Q192.42 5.41 192.35 5.45C191.47 5.99 190.78 6.74 190.28 7.7ZM88.31 21.38C87.77 20.84 87.5 20.19 87.5 19.43C87.5 18.67 87.77 18.02 88.31 17.48C88.85 16.94 89.52 16.67 90.32 16.67C91.16 16.67 91.84 16.94 92.36 17.48C92.88 18.02 93.14 18.67 93.14 19.43C93.14 20.19 92.88 20.84 92.36 21.38Q92.11 21.64 91.82 21.82Q91.18 22.19 90.32 22.19C89.52 22.19 88.85 21.92 88.31 21.38Z" fill="#FFFFFF" fill-opacity="1.000000" fill-rule="evenodd"/>
</svg>
