<svg viewBox="0 0 40 40" xmlns="http://www.w3.org/2000/svg" xmlns:xlink="http://www.w3.org/1999/xlink" width="40.000000" height="40.000000" fill="none" customFrame="#000000">
	<defs>
		<clipPath id="clipPath_0">
			<rect width="40.000000" height="40.000000" x="0.000000" y="0.000000" fill="rgb(255,255,255)" transform="matrix(-1,0,0,1,40,0)" />
		</clipPath>
	</defs>
	<rect id="Iconly/Bold/Arrow - Right Circle" width="40.000000" height="40.000000" x="0.000000" y="0.000000" fill="rgb(255,255,255)" fill-opacity="0" transform="matrix(-1,0,0,1,40,0)" />
	<g id="Iconly/Bold/Arrow - Right Circle" customFrame="url(#clipPath_0)">
		<rect id="Iconly/Bold/Arrow - Right Circle" width="40.000000" height="40.000000" x="0.000000" y="0.000000" fill="rgb(255,255,255)" fill-opacity="0" transform="matrix(-1,0,0,1,40,0)" />
		<g id="Arrow - Right Circle">
			<path id="Arrow - Right Circle" d="M33.3333 16.6667C33.3333 25.8667 25.85 33.3333 16.6667 33.3333L16.2004 33.3269C7.2157 33.0797 0 25.7107 0 16.6667C0 7.48333 7.46667 0 16.6667 0C25.85 0 33.3333 7.48333 33.3333 16.6667ZM13.3833 11.7667C12.8833 11.2833 12.8833 10.5 13.3667 10C13.6167 9.75 13.9333 9.63333 14.2667 9.63333C14.5833 9.63333 14.9 9.75 15.1333 10L20.95 15.7833C21.1833 16.0167 21.3167 16.3333 21.3167 16.6667C21.3167 17 21.1833 17.3167 20.95 17.55L15.1333 23.3333C14.65 23.8333 13.8667 23.8333 13.3667 23.3333C12.8833 22.85 12.8833 22.05 13.3833 21.5667L18.3 16.6667L13.3833 11.7667Z" fill="rgb(20,16,36)" fill-rule="evenodd" transform="matrix(-1,0,0,1,36.6665,3.33325)" />
		</g>
	</g>
</svg>
